<svg width="38" height="38" viewBox="0 0 38 38" fill="none" xmlns="http://www.w3.org/2000/svg">
<circle cx="19.2539" cy="19.0171" r="18.418" fill="#4E6297"/>
<path d="M27.542 13.3243C27.542 11.9454 26.3253 10.7286 24.9463 10.7286H14.4824C13.1034 10.7286 11.8867 11.9454 11.8867 13.3243V23.7882C11.8867 25.1672 13.1034 26.3839 14.4824 26.3839H19.7549V20.4625H17.8081V17.8668H19.7549V16.8123C19.7549 15.0278 21.0528 13.4866 22.6751 13.4866H24.7841V16.0823H22.6751C22.4317 16.0823 22.1884 16.3256 22.1884 16.8123V17.8668H24.7841V20.4625H22.1884V26.3839H24.9463C26.3253 26.3839 27.542 25.1672 27.542 23.7882V13.3243Z" fill="white"/>
</svg>
