<svg width="37" height="38" viewBox="0 0 37 38" fill="none" xmlns="http://www.w3.org/2000/svg">
<circle cx="18.418" cy="19.0171" r="18.418" fill="url(#paint0_linear_436_189)"/>
<path d="M24.4781 11.6495H13.2786C12.0141 11.6495 11.0507 12.6129 11.0507 13.8773V25.0769C11.0507 26.3414 12.0141 27.3048 13.2786 27.3048H24.4781C25.7426 27.3048 26.706 26.3414 26.706 25.0769V13.8773C26.706 12.6129 25.7426 11.6495 24.4781 11.6495ZM18.8784 24.1737C21.4675 24.1737 23.575 22.1265 23.575 19.6578C23.575 19.2363 23.5147 18.7546 23.3943 18.3933H24.719V24.7758C24.719 25.0769 24.4781 25.378 24.1169 25.378H13.6399C13.3388 25.378 13.0377 25.1371 13.0377 24.7758V18.3331H14.4226C14.3022 18.7546 14.242 19.1761 14.242 19.5975C14.1818 22.1265 16.2892 24.1737 18.8784 24.1737ZM18.8784 22.3673C17.1924 22.3673 15.8677 21.0426 15.8677 19.4169C15.8677 17.7912 17.1924 16.4665 18.8784 16.4665C20.5643 16.4665 21.889 17.7912 21.889 19.4169C21.889 21.1029 20.5643 22.3673 18.8784 22.3673ZM24.6588 15.9246C24.6588 16.2858 24.3577 16.5869 23.9964 16.5869H22.3105C21.9492 16.5869 21.6481 16.2858 21.6481 15.9246V14.2988C21.6481 13.9376 21.9492 13.6365 22.3105 13.6365H23.9964C24.3577 13.6365 24.6588 13.9376 24.6588 14.2988V15.9246Z" fill="white"/>
<defs>
<linearGradient id="paint0_linear_436_189" x1="7.82764" y1="33.291" x2="32.2315" y2="7.96632" gradientUnits="userSpaceOnUse">
<stop stop-color="#EEA054"/>
<stop offset="0.502762" stop-color="#D64763"/>
<stop offset="1" stop-color="#B62A99"/>
</linearGradient>
</defs>
</svg>
