<svg width="113" height="27" viewBox="0 0 113 27" fill="none" xmlns="http://www.w3.org/2000/svg">
<path d="M64.1086 3.63028C63.9222 3.08023 63.6777 2.61352 63.1516 2.59268H63.1184H62.6793H61.8341C61.7968 2.58852 61.7554 2.58435 61.714 2.58435H61.2914C61.2499 2.58435 61.2085 2.58852 61.1712 2.59268C60.7321 2.65936 60.5125 3.10106 60.3468 3.61778L53.8423 21.8986C53.8423 22.1403 54.037 22.3361 54.2773 22.3361H55.6362C56.1748 22.3361 56.4524 21.8902 56.6139 21.3527L57.9107 17.544C58.0018 17.2815 58.2463 17.1065 58.5239 17.1065H65.7575C66.031 17.1065 66.2754 17.2815 66.3665 17.5399L67.7171 21.3902C67.8829 21.9277 68.1729 22.3736 68.7363 22.3736H70.1574C70.4101 22.3736 70.6131 22.1778 70.6131 21.9361L64.1086 3.63028ZM58.8014 14.9438L62.0827 5.32626L65.4592 14.9438H58.8014Z" fill="#76A62D"/>
<path d="M83.125 2.64241C82.951 2.57574 81.9443 2.58407 81.9443 2.58407C81.269 2.60074 80.8381 2.58407 80.5356 3.00494C80.4901 3.06745 80.4569 3.13412 80.4238 3.2008L76.3927 11.9724L72.2414 3.20496C72.2082 3.13829 72.1751 3.07162 72.1295 3.00911C71.8271 2.58824 71.3962 2.60074 70.7209 2.58824C70.7209 2.58824 69.7142 2.57991 69.5402 2.64658C69.1259 2.80493 69.3993 3.31747 69.594 3.73834L74.6858 13.9559C74.9178 14.4226 75.0379 14.9352 75.0379 15.4561V21.6233C75.0379 22.04 75.3735 22.3775 75.7878 22.3775H76.8525C77.2668 22.3775 77.6024 22.04 77.6024 21.6233V15.4852C77.6024 14.9643 77.7226 14.4518 77.9546 13.9851L83.067 3.73418C83.2659 3.31331 83.5393 2.80076 83.125 2.64241Z" fill="#76A62D"/>
<path d="M102.589 12.1851L90.367 1.88837C90.2758 1.81336 90.1432 1.81753 90.0604 1.90504L88.254 3.79687L98.2345 12.1851L88.254 20.5734L90.0604 22.4652C90.1432 22.5527 90.2758 22.5569 90.367 22.4819L102.589 12.1851Z" fill="#76A62D"/>
<path d="M111.372 12.2686L99.1502 1.97187C99.059 1.89686 98.9264 1.90103 98.8436 1.98853L97.0372 3.88037L107.018 12.2686L97.0372 20.6569L98.8436 22.5487C98.9264 22.6362 99.059 22.6404 99.1502 22.5654L111.372 12.2686Z" fill="#76A62D"/>
<path d="M15.8014 2.57166H14.2602C13.937 2.57166 13.6802 2.83418 13.6802 3.15504V21.7192C13.6802 22.0567 13.9536 22.3359 14.2933 22.3359H15.7765C16.1121 22.3359 16.3897 22.0609 16.3897 21.7192V3.15921C16.3856 2.83418 16.1245 2.57166 15.8014 2.57166Z" fill="#76A62D"/>
<path d="M10.2871 19.9814H3.40557V3.15901C3.40557 2.83398 3.14457 2.57562 2.82556 2.57562H1.42108C1.09793 2.57562 0.841064 2.83815 0.841064 3.15901V19.9855V21.5232C0.841064 21.9065 1.14765 22.2149 1.5288 22.2149H3.40972H10.2912C10.6227 22.2149 10.8878 21.9482 10.8878 21.6148V20.5814C10.8837 20.2522 10.6144 19.9814 10.2871 19.9814Z" fill="#76A62D"/>
<path d="M51.8247 3.6634C50.9671 3.08002 49.7822 2.66748 47.516 2.66748H43.9406H43.1286C42.6065 2.66748 42.1798 3.09252 42.1798 3.62173V21.3566C42.1798 21.8984 42.6148 22.3401 43.1576 22.3401H43.9116C44.4502 22.3401 44.8893 21.9025 44.8893 21.3566V14.6936C45.7014 14.6936 48.5103 14.6936 48.8417 14.6936C49.227 14.6936 54.1738 13.9143 54.1738 8.49717C54.1696 6.13862 52.9682 4.44681 51.8247 3.6634ZM47.9427 12.6517C47.6858 12.6517 45.1876 12.6517 45.1876 12.6517H44.8852V4.70933H47.0644C48.56 4.70933 49.343 4.98019 49.9106 5.36772C50.6688 5.88443 51.4601 7.0012 51.4601 8.55967C51.4643 12.1392 48.1996 12.6517 47.9427 12.6517Z" fill="#76A62D"/>
<path d="M39.6733 22.7776C39.5656 22.6984 39.4455 22.6401 39.317 22.5901C38.2979 22.1984 36.8105 21.1608 35.9819 20.6232C35.3398 20.2065 35.4392 19.8773 35.5262 19.7398C35.5428 19.719 35.5635 19.694 35.5801 19.6731C35.5842 19.669 35.5842 19.669 35.5842 19.669C36.9928 17.9313 37.809 15.4561 37.809 12.3308C37.809 6.80531 35.4599 2.32574 29.0838 2.32574C23.2174 2.32574 20.4001 6.80531 20.4001 12.3308C20.4001 17.8563 22.2935 22.5859 29.0838 22.5859C30.4635 22.5859 31.7312 22.3192 32.8457 21.8025H32.8498C33.1771 21.6608 33.4961 21.665 33.9353 21.9858C37.084 24.3319 38.6459 25.1945 39.7645 25.1945C40.3031 25.1945 40.2078 23.5276 40.2078 23.5276C40.2078 23.5276 40.1291 23.1068 39.6733 22.7776ZM23.1842 12.3725C23.1842 12.36 23.1842 12.3475 23.1842 12.3308C23.1925 8.58047 24.5514 4.60095 29.0921 4.60095C34.2377 4.60095 35.0249 8.58047 35.029 12.3308C35.029 12.3433 35.029 12.3558 35.029 12.3725C35.029 16.8354 33.5914 20.2273 29.0921 20.2273C23.9258 20.2273 23.1842 16.1353 23.1842 12.3725Z" fill="#76A62D"/>
</svg>
