<svg width="65" height="39" viewBox="0 0 65 39" fill="none" xmlns="http://www.w3.org/2000/svg">
<path d="M64.4001 19.0267C64.4001 29.467 55.9112 38.0534 45.3734 38.0534C34.9331 38.0534 26.3467 29.467 26.3467 19.0267C26.3467 8.58641 34.8355 0 45.2758 0C55.9112 0 64.4001 8.58641 64.4001 19.0267Z" fill="#F9B50B"/>
<path d="M38.9336 19.1245C38.9336 17.7585 38.7385 16.3925 38.5433 15.124H26.8346C26.9322 14.441 27.1273 13.8556 27.3224 13.075H37.7627C37.5676 12.392 37.2749 11.709 36.9822 11.026H28.103C28.3957 10.343 28.786 9.75753 29.1763 8.97694H35.9089C35.5186 8.29393 35.0307 7.61092 34.4453 6.92791H30.7375C31.3229 6.2449 31.9084 5.65947 32.6889 4.97646C29.3715 1.85413 24.8831 0.000244141 19.9069 0.000244141C9.56419 0.292963 0.977783 8.58665 0.977783 19.0269C0.977783 29.4672 9.46662 38.0536 20.0045 38.0536C24.9807 38.0536 29.3715 36.1022 32.7865 33.0774C33.4695 32.492 34.055 31.809 34.738 31.0284H30.8351C30.3472 30.443 29.8593 29.76 29.469 29.0769H36.104C36.4943 28.4915 36.8846 27.8085 37.1773 27.0279H28.2982C28.0055 26.4425 27.7127 25.7595 27.5176 24.9789H37.9579C38.5433 23.2226 38.9336 21.2711 38.9336 19.1245Z" fill="#C8191C"/>
<path d="M26.737 23.9052L27.0297 22.1489C26.9321 22.1489 26.737 22.2465 26.5419 22.2465C25.8588 22.2465 25.7613 21.8562 25.8588 21.6611L26.4443 18.1485H27.5176L27.8103 16.197H26.8346L27.0297 15.0261H24.9807C24.9807 15.0261 23.8098 21.6611 23.8098 22.4417C23.8098 23.6125 24.4928 24.198 25.4686 24.198C26.054 24.198 26.5419 24.0028 26.737 23.9052Z" fill="white"/>
<path d="M27.4199 20.6855C27.4199 23.5151 29.3714 24.1981 30.9325 24.1981C32.3961 24.1981 33.0791 23.9054 33.0791 23.9054L33.4694 21.954C33.4694 21.954 32.3961 22.4418 31.3228 22.4418C29.0787 22.4418 29.469 20.7831 29.469 20.7831H33.567C33.567 20.7831 33.8597 19.5147 33.8597 18.9292C33.8597 17.6608 33.1767 16.002 30.9325 16.002C28.9811 15.9045 27.4199 18.1486 27.4199 20.6855ZM30.9325 17.7583C32.0058 17.7583 31.8107 19.0268 31.8107 19.1244H29.5665C29.6641 19.0268 29.8592 17.7583 30.9325 17.7583Z" fill="white"/>
<path d="M43.7147 23.9053L44.105 21.6611C44.105 21.6611 43.1293 22.149 42.3487 22.149C40.9827 22.149 40.2997 21.0757 40.2997 19.8072C40.2997 17.3679 41.4706 16.0994 42.9341 16.0994C43.9099 16.0994 44.788 16.6849 44.788 16.6849L45.0807 14.5383C45.0807 14.5383 43.9099 14.0504 42.739 14.0504C40.3973 14.0504 38.1531 16.0994 38.1531 19.9048C38.1531 22.4417 39.324 24.1004 41.7633 24.1004C42.6414 24.198 43.7147 23.9053 43.7147 23.9053Z" fill="white"/>
<path d="M15.7113 15.9042C14.3453 15.9042 13.272 16.2945 13.272 16.2945L12.9793 18.0508C12.9793 18.0508 13.8575 17.6605 15.2235 17.6605C15.9065 17.6605 16.4919 17.7581 16.4919 18.3435C16.4919 18.7338 16.3944 18.8314 16.3944 18.8314H15.5162C13.7599 18.8314 11.906 19.5144 11.906 21.8561C11.906 23.71 13.0769 24.1003 13.8575 24.1003C15.2235 24.1003 15.9065 23.2221 16.0041 23.2221L15.9065 24.0027H17.5652L18.3458 18.4411C18.3458 16.0017 16.3944 15.9042 15.7113 15.9042ZM16.1016 20.3925C16.1016 20.6852 15.9065 22.344 14.7356 22.344C14.1502 22.344 13.955 21.8561 13.955 21.5634C13.955 21.0755 14.2478 20.3925 15.8089 20.3925C16.0041 20.3925 16.1016 20.3925 16.1016 20.3925Z" fill="white"/>
<path d="M20.2972 24.1007C20.7851 24.1007 23.322 24.1983 23.322 21.4662C23.322 18.9293 20.8827 19.4172 20.8827 18.4415C20.8827 17.9536 21.273 17.7585 21.956 17.7585C22.2487 17.7585 23.322 17.856 23.322 17.856L23.6147 16.0022C23.6147 16.0022 22.9317 15.807 21.6633 15.807C20.1997 15.807 18.6385 16.3924 18.6385 18.4415C18.6385 20.7832 21.1754 20.5881 21.1754 21.4662C21.1754 22.0517 20.4924 22.1492 20.0045 22.1492C19.1264 22.1492 18.1506 21.8565 18.1506 21.8565L17.8579 23.7104C18.0531 23.9055 18.6385 24.1007 20.2972 24.1007Z" fill="white"/>
<path d="M60.4973 14.3434L60.107 17.0754C60.107 17.0754 59.3264 16.0997 58.1555 16.0997C56.3016 16.0997 54.7405 18.3439 54.7405 20.9783C54.7405 22.6371 55.5211 24.2958 57.2774 24.2958C58.4482 24.2958 59.2288 23.5152 59.2288 23.5152L59.1313 24.1982H61.1803L62.6439 14.5385L60.4973 14.3434ZM59.5215 19.6123C59.5215 20.6856 59.0337 22.1492 57.8628 22.1492C57.1798 22.1492 56.7895 21.5638 56.7895 20.4905C56.7895 18.8317 57.4725 17.856 58.4482 17.856C59.1313 17.9536 59.5215 18.4414 59.5215 19.6123Z" fill="white"/>
<path d="M4.68559 24.0031L5.85646 16.7827L6.05161 24.0031H7.41763L10.0521 16.7827L8.97879 24.0031H11.1254L12.7841 14.3434H9.46665L7.41763 20.2953L7.32005 14.3434H4.39287L2.73413 24.0031H4.68559Z" fill="white"/>
<path d="M35.909 24.0029C36.4944 20.6854 36.592 17.9534 38.0556 18.4412C38.2507 17.1728 38.5434 16.5874 38.7386 16.0995H38.3483C37.4701 16.0995 36.6896 17.2704 36.6896 17.2704L36.8847 16.1971H34.9332L33.6648 24.0029H35.909Z" fill="white"/>
<path d="M48.3981 15.9042C47.0321 15.9042 45.9588 16.2945 45.9588 16.2945L45.6661 18.0508C45.6661 18.0508 46.5442 17.6605 47.9102 17.6605C48.5933 17.6605 49.1787 17.7581 49.1787 18.3435C49.1787 18.7338 49.0811 18.8314 49.0811 18.8314H48.203C46.4467 18.8314 44.5928 19.5144 44.5928 21.8561C44.5928 23.71 45.7636 24.1003 46.5442 24.1003C47.9102 24.1003 48.5933 23.2221 48.6908 23.2221L48.5933 24.0027H50.4471L51.2277 18.4411C51.2277 16.0017 49.0811 15.9042 48.3981 15.9042ZM48.886 20.3925C48.886 20.6852 48.6908 22.344 47.52 22.344C46.9345 22.344 46.7394 21.8561 46.7394 21.5634C46.7394 21.0755 47.0321 20.3925 48.5933 20.3925C48.7884 20.3925 48.7884 20.3925 48.886 20.3925Z" fill="white"/>
<path d="M52.7889 24.0029C53.3743 20.6854 53.4719 17.9534 54.9355 18.4412C55.1306 17.1728 55.4233 16.5874 55.6185 16.0995H55.2282C54.35 16.0995 53.5694 17.2704 53.5694 17.2704L53.7646 16.1971H51.8131L50.5447 24.0029H52.7889Z" fill="white"/>
</svg>
