<svg width="38" height="38" viewBox="0 0 38 38" fill="none" xmlns="http://www.w3.org/2000/svg">
<circle cx="19.0899" cy="19.0171" r="18.418" fill="#2F89CE"/>
<path d="M9.28292 19.3612L13.5173 20.9401L15.168 26.251C15.2398 26.6098 15.6704 26.6816 15.9574 26.4663L18.3258 24.5285C18.5411 24.3132 18.9 24.3132 19.187 24.5285L23.4214 27.6146C23.7085 27.8299 24.1391 27.6864 24.2109 27.3275L27.3687 12.256C27.4405 11.8972 27.0816 11.5383 26.7228 11.6819L9.28292 18.4282C8.85231 18.5717 8.85231 19.2176 9.28292 19.3612ZM14.9527 20.1506L23.2779 15.055C23.4214 14.9833 23.565 15.1986 23.4214 15.2703L16.6034 21.6578C16.3881 21.8731 16.1727 22.1601 16.1727 22.519L15.9574 24.2414C15.9574 24.4568 15.5986 24.5285 15.5268 24.2414L14.6656 21.0836C14.4503 20.7248 14.5938 20.2942 14.9527 20.1506Z" fill="white"/>
</svg>
