<svg width="68" height="22" viewBox="0 0 68 22" fill="none" xmlns="http://www.w3.org/2000/svg">
<path d="M62.9749 1.07404H58.7793C57.5109 1.07404 56.5351 1.46433 55.9497 2.73277L47.9487 20.9789H53.608C53.608 20.9789 54.5837 18.5396 54.7788 17.9541C55.3643 17.9541 60.9259 17.9541 61.7065 17.9541C61.9016 18.6371 62.3895 20.8813 62.3895 20.8813H67.4633L62.9749 1.07404ZM56.34 13.8561C56.8279 12.6852 58.4866 8.29442 58.4866 8.29442C58.4866 8.392 58.9745 7.12355 59.1696 6.44054L59.5599 8.19685C59.5599 8.19685 60.6332 12.9779 60.8283 13.9536H56.34V13.8561Z" fill="#3362AB"/>
<path d="M48.339 14.4417C48.339 18.5398 44.6313 21.2718 38.8745 21.2718C36.4351 21.2718 34.0934 20.784 32.825 20.1985L33.6055 15.7102L34.2885 16.0029C36.0449 16.7835 37.2157 17.0762 39.3623 17.0762C40.9235 17.0762 42.5822 16.4908 42.5822 15.1248C42.5822 14.2466 41.8992 13.6612 39.7526 12.6854C37.7036 11.7097 34.9716 10.1485 34.9716 7.31893C34.9716 3.41602 38.7769 0.781555 44.1434 0.781555C46.1924 0.781555 47.9487 1.17185 49.022 1.65971L48.2415 5.95291L47.8512 5.56262C46.8754 5.17233 45.607 4.78204 43.7531 4.78204C41.7041 4.87961 40.7283 5.75777 40.7283 6.53835C40.7283 7.41651 41.8992 8.09952 43.7531 8.97767C46.8754 10.4413 48.339 12.1 48.339 14.4417Z" fill="#3362AB"/>
<path d="M0.723389 1.2695L0.820961 0.879211H9.21222C10.3831 0.879211 11.2613 1.2695 11.554 2.53795L13.4079 11.3195C11.554 6.63601 7.26077 2.83067 0.723389 1.2695Z" fill="#F9B50B"/>
<path d="M25.2141 1.07444L16.7253 20.8817H10.9685L6.08984 4.29434C9.60246 6.53852 12.5296 10.0511 13.603 12.4905L14.1884 14.5395L19.4573 0.976868H25.2141V1.07444Z" fill="#3362AB"/>
<path d="M27.4585 0.976868H32.825L29.41 20.8817H24.0435L27.4585 0.976868Z" fill="#3362AB"/>
</svg>
