<svg width="38" height="38" viewBox="0 0 38 38" fill="none" xmlns="http://www.w3.org/2000/svg">
<circle cx="18.9258" cy="19.0171" r="18.418" fill="#F40000"/>
<path d="M26.9498 18.0162C26.9498 17.659 26.8903 17.2423 26.8903 16.766C26.8308 16.2897 26.7712 15.8135 26.7117 15.3967C26.5926 14.9205 26.414 14.5633 26.0568 14.2656C25.7592 13.968 25.3424 13.7894 24.9257 13.7298C23.5565 13.5512 21.5323 13.4917 18.7938 13.4917C16.0553 13.4917 13.9717 13.5512 12.6619 13.7298C12.2452 13.7894 11.8285 13.968 11.5308 14.2656C11.2331 14.5633 10.995 14.9205 10.8759 15.3967C10.7569 15.8135 10.6974 16.2302 10.6974 16.766C10.6378 17.2423 10.6378 17.659 10.6378 18.0162C10.6378 18.3734 10.6378 18.7901 10.6378 19.3855C10.6378 19.9808 10.6378 20.457 10.6378 20.7547C10.6378 21.1119 10.6974 21.5286 10.6974 22.0049C10.7569 22.4812 10.8164 22.9574 10.8759 23.3742C10.995 23.8504 11.1736 24.2076 11.5308 24.5053C11.8285 24.8029 12.2452 24.9815 12.6619 25.0411C14.0312 25.2197 16.0553 25.2792 18.7938 25.2792C21.5323 25.2792 23.616 25.2197 24.9257 25.0411C25.3424 24.9815 25.7592 24.8029 26.0568 24.5053C26.3545 24.2076 26.5926 23.8504 26.7117 23.3742C26.8308 22.9574 26.8903 22.5407 26.8903 22.0049C26.9498 21.5286 26.9498 21.1119 26.9498 20.7547C26.9498 20.3975 26.9498 19.9808 26.9498 19.3855C26.9498 18.7901 26.9498 18.3139 26.9498 18.0162ZM21.9491 19.8617L17.246 22.7788C17.1864 22.8384 17.0674 22.8979 16.9483 22.8979C16.8292 22.8979 16.7697 22.8979 16.6506 22.8384C16.472 22.7193 16.353 22.5407 16.353 22.3026V16.4088C16.353 16.1707 16.472 15.9921 16.6506 15.873C16.8292 15.7539 17.0674 15.7539 17.246 15.873L21.9491 18.7901C22.1277 18.9092 22.2467 19.0878 22.2467 19.2664C22.2467 19.445 22.1277 19.7426 21.9491 19.8617Z" fill="white"/>
</svg>
