<svg width="412" height="361" viewBox="0 0 412 361" fill="none" xmlns="http://www.w3.org/2000/svg">
<path d="M226.411 202.484L244.989 212.359L254.827 193.771C266.372 170.862 269.785 162.22 264.561 150.149C256.727 132.042 233.43 127.792 229.617 143.773C227.91 148.094 224.898 149.397 214.556 150.29C201.201 152.486 198.189 153.789 196.482 158.11C186.644 176.698 197.491 193.501 226.411 202.484ZM211.143 158.932C217.167 156.325 220.179 155.022 225.803 159.754C232.733 167.504 232.733 167.504 234.84 155.844C232.228 149.808 233.935 145.487 241.265 145.898C256.326 139.381 261.653 176.486 249.203 189.039C239.766 200.288 236.754 201.591 222.494 193.431C199.598 181.841 193.069 166.753 211.143 158.932Z" fill="#F1C3A9"/>
<path d="M52.593 180.961L74.7912 232.263C85.2375 256.404 95.6837 280.546 92.6714 281.85C93.9772 284.867 98.2952 286.582 101.307 285.278C107.332 282.672 111.65 284.386 111.65 284.386C120.286 287.815 119.381 277.458 97.1826 226.157L72.3728 168.82L63.3362 172.73C57.3117 175.337 51.2873 177.943 52.593 180.961ZM88.1459 230.067C103.815 266.28 107.733 275.333 104.72 276.636C100.002 282.261 97.3901 276.225 89.9561 250.78C83.4272 235.691 78.6048 216.281 73.3817 204.211C69.4644 195.157 66.8528 189.122 69.865 187.818C69.865 187.818 76.3939 202.907 88.1459 230.067Z" fill="#F1C3A9"/>
<path d="M233.845 227.929C248.506 228.751 248.506 228.751 263.968 214.895C285.454 198.433 288.867 189.79 289.668 175.113C291.271 145.757 270.883 115.169 240.657 103.168C219.067 94.5968 181.614 107.22 173.082 128.825C160.232 148.717 164.253 182.804 185.042 206.054C198.901 221.553 213.16 229.714 233.845 227.929ZM207.923 110.167C261.342 101.384 305.13 161.257 272.099 200.628C251.919 220.109 219.185 227.107 202.314 212.911C162.947 179.786 169.165 119.772 207.923 110.167Z" fill="#F1C3A9"/>
<path d="M92.7465 91.9318C92.7465 91.9318 88.4285 90.2175 84.1105 88.5031C78.4867 83.7711 72.4622 86.3779 66.4378 88.9846C60.4133 91.5914 53.0831 91.1805 47.0587 93.7873C39.7284 93.3763 36.7162 94.6797 34.2084 113.679C27.3826 130.963 25.6762 135.284 15.3337 136.177C6.29703 140.087 6.29703 140.087 5.89636 147.426C8.50791 153.461 86.4538 341.864 91.677 353.935C91.677 353.935 97.7014 351.328 100.714 350.025C103.726 348.721 141.579 328.759 186.762 309.209C381.251 221.47 404.043 208.025 405.75 203.704C407.456 199.383 406.15 196.365 406.15 196.365C398.82 195.954 384.457 162.759 344.482 86.9051C323.59 38.6214 310.131 15.7829 305.813 14.0686C305.813 14.0686 293.764 19.2822 283.422 20.1746C255.006 28.8874 247.676 28.4765 227.792 15.5836L209.214 5.70856L191.141 13.5289C182.104 17.4391 165.737 20.9383 156.701 24.8485L137.322 29.6512L136.52 44.3289C135.719 59.0066 126.282 70.2556 109.514 81.0937C100.477 85.0039 95.7587 90.6284 92.7465 91.9318ZM148.673 64.1496L158.912 38.2228L207.107 17.3685L228.697 25.9402C248.581 38.8331 248.581 38.8331 276.596 37.4591C289.951 35.2633 300.293 34.3708 303.305 33.0674C306.318 31.764 308.929 37.7995 314.553 42.5316C325.4 59.3346 390.184 192.526 389.784 199.865C391.089 202.882 376.028 209.399 341.187 228.058C279.236 258.447 113.564 330.133 104.527 334.044L97.197 333.633L60.6352 249.136C33.2139 185.764 24.0735 164.64 27.0857 163.336C28.3915 166.354 30.0979 162.033 24.4741 157.301C21.8626 151.265 21.8626 151.265 30.8993 147.355C39.9359 143.445 41.6424 139.124 39.0308 133.088C36.82 119.714 46.2573 108.465 58.3062 103.251C70.3551 98.0378 73.3673 96.7345 86.3213 101.877C99.2754 107.02 102.288 105.717 108.312 103.11C110.018 98.7892 119.055 94.879 125.08 92.2722C138.434 90.0764 137.129 87.0586 148.673 64.1496Z" fill="#F1C3A9"/>
<path d="M235.656 248.642C269.695 244.662 298.512 228.61 310.056 205.701C324.613 181.488 307.133 124.562 284.638 105.634C259.131 88.0092 238.847 82.4553 215.55 78.2047C187.535 79.5787 181.511 82.1854 164.342 100.362C145.868 115.522 139.042 132.806 143.464 159.555C147.99 211.338 191.274 253.515 235.656 248.642ZM162.146 194.464C146.076 165.59 148.48 121.557 169.966 105.094C182.416 92.542 191.452 88.6319 209.125 88.1503C232.822 85.0621 245.776 90.2051 269.978 104.812L289.861 117.705L297.295 143.15C310.353 173.328 310.857 191.023 296.701 207.897C283.851 227.788 253.729 240.822 224.408 239.178C209.748 238.356 176.91 220.32 174.298 214.285C172.993 211.267 166.063 203.517 162.146 194.464Z" fill="#F1C3A9"/>
<path d="M137.322 29.6512L156.701 24.8485C165.737 20.9383 182.104 17.4391 191.141 13.5289L209.214 5.70856L227.792 15.5836C247.676 28.4765 255.006 28.8874 283.422 20.1746C293.764 19.2822 305.813 14.0686 305.813 14.0686C310.131 15.7829 323.59 38.6214 344.482 86.9051C384.457 162.759 398.82 195.954 406.15 196.365C406.15 196.365 407.456 199.383 405.75 203.704C404.043 208.025 381.251 221.47 186.762 309.209C141.579 328.759 103.726 348.721 100.714 350.025C97.7014 351.328 91.677 353.935 91.677 353.935C86.4538 341.864 8.50791 153.461 5.89636 147.426C6.29703 140.087 6.29703 140.087 15.3337 136.177C17.7858 135.976 19.7197 135.569 21.4065 134.839C26.7683 132.519 29.0037 126.858 34.2084 113.679C35.9257 100.539 37.9153 95.8806 41.3794 94.3817C42.9457 93.7039 44.7863 93.6599 47.0587 93.7873C53.0831 91.1805 60.4133 91.5914 66.4378 88.9846C72.4622 86.3779 78.4867 83.7711 84.1105 88.5031C88.4285 90.2175 92.7465 91.9318 92.7465 91.9318C95.7587 90.6284 100.477 85.0039 109.514 81.0937C126.282 70.2556 135.719 59.0066 136.52 44.3289L137.322 29.6512ZM132.594 25.7496L132.38 29.3889L131.579 44.0666C130.922 56.1023 123.372 66.1763 107.134 76.7496C101.015 79.4689 96.6795 82.9212 93.7748 85.2171C93.2678 85.6156 92.7136 86.0704 92.1935 86.4387L86.5801 84.2101C78.8173 78.2539 70.5337 81.8382 64.449 84.4711C61.979 85.5399 59.0409 86.023 55.8961 86.5239C52.6909 87.0509 49.3824 87.5868 46.1543 88.8045C43.658 88.7382 41.4861 88.9256 39.3775 89.838C33.2024 92.5099 31.0516 99.8537 29.3663 112.406C24.5411 124.561 22.688 128.874 19.4047 130.295C18.3203 130.764 16.8774 131.066 14.8822 131.249L14.0849 131.307L13.362 131.62C3.18066 136.025 1.50093 137.433 0.972046 147.12L0.920996 148.325L1.37802 149.381C2.44876 151.855 16.5353 185.815 32.8557 225.186C55.686 280.262 84.09 348.798 87.1586 355.89L89.1173 360.417L102.672 354.551C103.395 354.239 105.013 353.431 108.945 351.443C122.117 344.776 152.936 329.219 188.721 313.735C406.368 215.546 408.224 210.91 410.327 205.521C412.716 199.472 410.891 194.923 410.669 194.41L409.454 191.604L406.859 191.473C402.623 188.792 391.549 167.25 376.33 137.614C368.994 123.304 359.833 105.521 348.935 84.7991C334.872 52.2981 316.314 12.9642 307.635 9.51837L305.735 8.76405L303.868 9.57216C303.747 9.62429 292.408 14.4949 282.996 15.307L282.479 15.3516L281.971 15.4998C254.662 23.8771 248.892 23.4359 230.457 11.4929L211.507 1.42031L209.421 0.316909L189.209 9.06268C184.961 10.9005 178.671 12.7267 172.574 14.505C166.356 16.3354 159.932 18.1837 155.16 20.2128L136.168 24.9194L132.594 25.7496Z" fill="#F1C3A9"/>
</svg>
