<svg width="1920" height="533" viewBox="0 0 1920 533" fill="none" xmlns="http://www.w3.org/2000/svg">
<path d="M783.644 377.503C781.51 380.836 777.608 383.984 777.608 383.984C775.842 383.799 766.894 366.865 767.078 365.106C767.078 365.106 763.912 361.22 762.513 357.518C759.346 353.632 758.131 348.172 756.548 346.229C756.732 344.47 753.749 338.825 750.399 336.698C742.3 328.741 733.466 327.818 723.897 333.929C716.462 336.707 716.279 338.466 715.544 345.5C714.992 350.776 715.84 359.753 716.872 366.971C719.304 377.892 719.12 379.65 716.802 384.741C712.717 389.648 712.533 391.406 713.565 398.625L719.162 413.432C724.095 417.502 723.912 419.261 721.961 420.835C710.258 430.278 718.286 456.005 732.237 459.241C739.121 461.738 740.887 461.922 748.619 473.396C751.601 479.041 753.368 479.226 769.27 480.887C781.637 482.18 786.938 482.733 792.606 479.77C796.323 478.381 801.624 478.935 803.39 479.119C808.691 479.673 818.557 487.815 818.189 491.332C818.005 493.09 819.772 493.275 821.355 495.218C822.938 497.161 824.522 499.104 824.154 502.621C823.97 504.38 825.37 508.082 825.37 508.082C827.136 508.266 838.289 504.098 838.289 504.098C838.472 502.34 840.423 500.766 843.957 501.135C845.907 499.561 849.624 498.172 849.624 498.172C849.992 494.655 863.278 487.154 866.628 489.282C875.462 490.205 895.816 483.443 896.367 478.167C896.551 476.409 898.318 476.594 901.851 476.963C907.152 477.517 910.869 476.127 914.77 472.979C924.155 468.627 924.339 466.868 924.89 461.593C925.074 459.834 927.025 458.26 927.025 458.26C928.792 458.445 932.693 455.297 936.594 452.149C946.163 446.038 950.799 435.856 948 428.453C946.601 424.751 946.785 422.993 950.686 419.845C956.537 415.123 956.721 413.365 957.456 406.33C958.191 399.296 958.558 395.779 953.442 393.467C951.859 391.524 952.042 389.765 959.661 385.228C969.23 379.117 971.548 374.026 968.933 364.864C964.735 353.759 959.435 353.205 946.516 357.189C929.696 364.32 924.028 367.283 910.374 378.301C900.621 386.17 898.854 385.986 897.271 384.043C887.589 374.142 867.97 373.87 856.451 381.555L848.832 386.092L838.966 377.951C834.033 373.88 827.334 369.624 825.567 369.44C813.566 364.63 793.397 369.634 783.644 377.503ZM897.243 435.594C899.01 435.778 899.01 435.778 898.826 437.537L896.876 439.111L895.293 437.168C895.476 435.409 895.476 435.409 897.243 435.594ZM909.865 417.357C910.049 415.599 907.067 409.954 905.851 404.494C901.653 393.389 901.653 393.389 913.54 382.187C919.392 377.465 947.731 362.649 953.215 361.444C960.466 360.424 963.633 364.31 962.898 371.345C962.346 376.62 960.396 378.194 952.594 384.49C948.693 387.638 942.841 392.359 941.074 392.175C939.123 393.749 937.173 395.323 938.756 397.266C938.572 399.024 940.339 399.209 944.056 397.82C949.541 396.615 954.657 398.927 954.106 404.203C953.555 409.478 939.717 422.254 934.233 423.459C928.749 424.664 922.897 429.385 924.48 431.329C926.247 431.513 928.014 431.698 931.731 430.308L938.799 431.047C942.149 433.175 941.23 441.967 937.145 446.874C933.244 450.021 922.092 454.189 915.025 453.451C911.491 453.082 909.724 452.897 911.307 454.84C911.123 456.599 912.706 458.542 914.473 458.727C919.774 459.28 919.039 466.315 915.138 469.462C913.187 471.036 907.887 470.482 898.869 471.318C888.268 470.21 888.268 470.21 887.717 475.486C889.116 479.188 887.166 480.762 883.448 482.151C881.498 483.725 876.013 484.929 872.48 484.56C865.413 483.822 865.596 482.063 869.497 478.915C871.448 477.342 875.533 472.435 879.618 467.529C883.886 460.864 889.922 454.384 893.823 451.236C899.674 446.514 908.947 426.15 909.865 417.357ZM896.352 392.835L897.936 394.778L895.985 396.352C894.218 396.168 894.402 394.409 894.586 392.651C894.586 392.651 894.586 392.651 896.352 392.835ZM894.034 397.926L893.483 403.202C891.349 406.534 891.349 406.534 891.716 403.017C891.9 401.259 892.268 397.742 894.034 397.926ZM892.932 408.477C892.932 408.477 894.699 408.662 894.331 412.179C894.148 413.938 892.197 415.511 890.614 413.568C890.981 410.051 891.165 408.293 892.932 408.477ZM891.646 420.787L890.911 427.821C889.808 438.372 891.208 442.074 892.975 442.259C894.741 442.443 894.741 442.443 892.607 445.776C890.473 449.108 888.522 450.682 886.755 450.497C884.805 452.071 889.144 427.637 891.646 420.787ZM879.943 430.231L882.515 405.611C884.352 388.026 886.303 386.452 888.07 386.637C891.42 388.764 891.42 388.764 885.059 432.543C880.904 455.219 880.536 458.736 876.452 463.643C872.55 466.79 872.55 466.79 876.155 449.39C877.073 440.597 879.943 430.231 879.943 430.231ZM874.755 445.688C871.519 459.572 868.466 471.697 866.515 473.271C866.331 475.029 864.932 471.328 867.25 466.237C867.985 459.202 871.773 440.043 875.561 420.884C880.451 391.174 880.819 387.657 879.349 401.725C880.197 410.702 876.409 429.861 874.755 445.688ZM870.331 402.56L872.352 383.217C872.352 383.217 875.886 383.586 877.652 383.77L879.419 383.955C875.702 385.344 875.518 387.103 874.048 401.171C872.578 415.239 863.716 465.867 863.349 469.384C863.349 469.384 862.981 472.901 862.614 476.419C862.246 479.936 860.112 483.268 858.345 483.083C856.579 482.899 854.995 480.956 857.497 474.106C857.865 470.589 861.101 456.706 862.571 442.637C864.041 428.569 867.645 411.168 870.331 402.56ZM867.052 382.663C868.818 382.847 867.165 398.674 858.854 444.027C854.882 464.944 852.861 484.288 852.677 486.047C852.494 487.805 850.543 489.379 848.776 489.195C848.776 489.195 847.744 481.976 850.981 468.092C852.267 455.783 856.239 434.865 857.525 422.555C862.599 391.086 863.518 382.294 867.052 382.663ZM857.666 387.015C859.433 387.2 858.882 392.476 857.963 401.268C857.228 408.302 854.543 416.91 854.175 420.427L854.359 418.669C854.797 397.382 855.899 386.831 857.666 387.015ZM815.814 377.309C815.998 375.551 815.998 375.551 815.998 375.551C817.765 375.735 817.765 375.735 817.581 377.494C817.397 379.252 815.446 380.826 815.446 380.826C815.446 380.826 815.63 379.068 815.814 377.309ZM806.612 379.903C808.93 374.812 809.114 373.054 810.697 374.997C810.697 374.997 807.093 392.398 804.704 415.258C800.549 437.935 797.312 451.818 795.729 449.875C794.33 446.174 803.559 392.028 806.612 379.903ZM799.361 380.923C801.679 375.832 801.128 381.108 798.923 402.21C797.27 418.037 793.849 433.679 793.666 435.438C793.298 438.955 791.164 442.287 791.164 442.287C789.213 443.861 796.676 389.531 799.361 380.923ZM793.693 383.887L789.835 420.816C787.149 429.424 787.333 427.665 788.987 411.838C790.273 399.529 791.559 387.219 793.693 383.887ZM787.673 475.699C778.655 476.535 771.404 477.555 759.22 474.504C754.103 472.192 752.336 472.007 750.937 468.306C749.905 461.087 749.905 461.087 756.789 463.584C758.556 463.768 762.089 464.138 762.273 462.379C762.457 460.621 757.156 460.067 751.856 459.513C729.071 455.354 716.406 439.809 726.527 428.423C728.661 425.09 730.428 425.275 732.195 425.46C735.544 427.587 737.127 429.53 738.894 429.715C742.428 430.084 741.396 422.866 736.279 420.553C729.396 418.056 718.682 400.937 719.417 393.903C720.335 385.111 727.586 384.09 733.919 391.863C736.901 397.508 740.435 397.877 739.035 394.175C739.219 392.417 731.488 380.943 729.721 380.758C727.954 380.573 726.738 375.113 723.572 371.227C719.558 358.363 719.261 344.111 726.879 339.573C738.583 330.13 746.682 338.087 764.576 371.956C770.357 385.004 773.34 390.649 775.404 405.086C776.732 426.558 785.496 445.25 797.977 462.554C804.125 472.085 803.942 473.844 787.673 475.699ZM803.461 461.349C801.694 461.165 800.478 455.705 801.03 450.429C802.867 432.844 813.312 384.159 815.263 382.585C815.263 382.585 813.425 400.17 811.221 421.272C808.832 444.133 805.228 461.534 805.044 463.292C805.044 463.292 803.277 463.108 803.461 461.349ZM850.528 404.047L845.935 448.01C843.546 470.871 839.575 491.789 839.575 491.789C839.391 493.547 837.44 495.121 837.44 495.121C833.907 494.752 835.56 478.925 843.32 438.848L850.528 404.047ZM843.645 401.55C847.546 398.402 846.627 407.195 842.104 433.388C838.684 449.03 834.712 469.948 833.794 478.74C828.903 508.451 828.423 495.956 834.232 457.454C838.09 420.524 841.694 403.124 843.645 401.55ZM824.111 468.84C825.214 458.289 829.186 437.371 831.207 418.028C835.913 390.076 836.281 386.559 838.048 386.743C841.581 387.112 841.214 390.63 836.875 415.064C835.221 430.891 830.882 455.326 829.596 467.635C825.624 488.553 825.256 492.07 823.857 488.369C822.274 486.425 821.058 480.965 824.111 468.84ZM827.122 422.934C820.762 466.712 817.157 484.113 815.942 478.653C814.542 474.951 815.461 466.159 820.903 431.173C829.948 378.786 832.083 375.454 827.122 422.934ZM819.136 430.988C815.164 451.906 811.56 469.306 811.56 469.306C809.609 470.88 809.609 470.88 808.026 468.937C806.443 466.994 806.443 466.994 806.443 466.994C808.21 467.179 809.864 451.352 811.701 433.767C813.539 416.181 816.959 400.539 817.143 398.781C817.326 397.022 819.828 390.173 820.379 384.897C822.881 378.048 823.065 376.289 824.832 376.474C828.182 378.602 827.447 385.636 819.136 430.988Z" fill="#F1C3A9"/>
<path d="M785.891 390.182C786.259 386.665 786.075 388.424 785.34 395.458C784.605 402.492 784.238 406.009 784.605 402.492C784.973 398.975 785.524 393.699 785.891 390.182Z" fill="#F1C3A9"/>
<path d="M903.349 411.343C903.533 409.585 903.349 411.343 902.798 416.619C902.43 420.136 902.247 421.895 902.43 420.136C902.614 418.378 903.165 413.102 903.349 411.343Z" fill="#F1C3A9"/>
<path d="M898.416 407.273C898.967 401.997 898.416 407.273 897.498 416.065C896.395 426.616 896.028 430.133 896.579 424.858C896.946 421.341 897.865 412.548 898.416 407.273Z" fill="#F1C3A9"/>
<path d="M849.469 448.379C849.652 446.621 849.652 446.621 849.285 450.138C848.917 453.655 848.917 453.655 848.917 453.655C849.101 451.896 849.285 450.138 849.469 448.379Z" fill="#F1C3A9"/>
<path d="M737.699 330.038C742.116 330.499 746.35 332.719 750.399 336.698C753.749 338.825 756.732 344.47 756.548 346.229C758.131 348.172 759.346 353.632 762.513 357.518C763.912 361.22 767.078 365.106 767.078 365.106C766.894 366.865 775.842 383.799 777.608 383.984C777.608 383.984 781.51 380.836 783.644 377.503C791.641 371.05 806.636 366.519 818.385 367.747C820.964 368.017 823.389 368.572 825.567 369.44C827.334 369.624 834.033 373.88 838.966 377.951L848.832 386.092L856.451 381.555C862.786 377.328 871.55 375.506 879.783 376.367C886.533 377.072 892.916 379.57 897.271 384.043C897.762 384.645 898.271 385.071 899.013 385.149C900.709 385.326 903.627 383.729 910.374 378.301C924.028 367.283 929.696 364.32 946.516 357.189C951.867 355.544 955.906 354.668 959.104 355.002C963.627 355.475 966.468 358.367 968.933 364.864C971.548 374.026 969.23 379.117 959.661 385.228C952.042 389.765 951.859 391.524 953.442 393.467C958.558 395.779 958.191 399.296 957.456 406.33C956.721 413.365 956.537 415.123 950.686 419.845C946.785 422.993 946.601 424.751 948 428.453C950.799 435.856 946.163 446.038 936.594 452.149C932.693 455.297 928.792 458.445 927.025 458.26C927.025 458.26 925.074 459.834 924.89 461.593C924.339 466.868 924.155 468.627 914.77 472.979C910.869 476.127 907.152 477.517 901.851 476.963C898.318 476.594 896.551 476.409 896.367 478.167C895.816 483.443 875.462 490.205 866.628 489.282C866.327 489.091 865.945 488.98 865.504 488.933C860.998 488.463 849.959 494.971 849.624 498.172C849.624 498.172 845.907 499.561 843.957 501.135C840.423 500.766 838.472 502.34 838.289 504.098C838.289 504.098 827.136 508.266 825.37 508.082C825.37 508.082 823.97 504.38 824.154 502.621C824.522 499.104 822.938 497.161 821.355 495.218C819.772 493.275 818.005 493.09 818.189 491.332C818.557 487.815 808.691 479.673 803.39 479.119C801.624 478.935 796.323 478.381 792.606 479.77C786.938 482.733 781.637 482.18 769.27 480.887C753.368 479.226 751.601 479.041 748.619 473.396C740.887 461.922 739.121 461.738 732.237 459.241C718.286 456.005 710.258 430.278 721.961 420.835C723.912 419.261 724.095 417.502 719.162 413.432L713.565 398.625C712.533 391.406 712.717 389.648 716.802 384.741C719.12 379.65 719.304 377.892 716.872 366.971C715.84 359.753 714.992 350.776 715.544 345.5C716.279 338.466 716.462 336.707 723.897 333.929C728.682 330.873 733.282 329.576 737.699 330.038ZM737.975 327.4C733.046 326.885 727.898 328.285 722.699 331.546C714.386 334.695 713.713 337.38 712.893 345.223C712.199 351.87 713.601 362.896 714.227 367.335L714.233 367.442L714.259 367.534C716.569 377.908 716.339 379.253 714.504 383.31C710.023 388.762 709.822 391.372 710.919 398.988L710.961 399.277L711.057 399.554L716.906 415.027L717.449 415.475C719.586 417.245 720.271 418.205 720.48 418.6C720.421 418.647 720.361 418.712 720.265 418.773C714.433 423.479 712.28 431.947 714.468 441.438C716.465 450.02 722.482 459.608 731.453 461.79L732.296 462.091C737.978 464.125 739.51 464.676 746.316 474.756C749.948 481.535 752.916 481.845 768.994 483.525C781.574 484.839 787.369 485.445 793.692 482.195C795.768 481.469 798.945 481.321 803.115 481.757C807.249 482.189 815.136 488.933 815.53 491.143C815.304 493.644 816.957 494.919 817.949 495.68C818.429 496.05 818.874 496.399 819.288 496.886C820.776 498.713 821.757 499.918 821.504 502.344C821.272 504.56 822.501 508.013 822.879 509.012L823.451 510.548L825.094 510.719C826.684 510.885 831.437 509.498 839.226 506.578L840.768 506.011L840.939 504.375C840.955 504.217 841.72 503.568 843.681 503.773L844.776 503.887L845.635 503.195C846.961 502.124 849.707 500.971 850.562 500.652L852.104 500.084L852.262 498.572C853.262 496.347 862.065 491.241 865.228 491.571C865.246 491.573 865.263 491.575 865.281 491.577L865.734 491.855L866.353 491.92C874.975 492.821 896.4 486.74 898.814 479.365C899.509 479.385 900.586 479.497 901.576 479.601C907.194 480.188 911.581 478.886 916.195 475.244C925.848 470.724 926.874 468.253 927.541 461.87C927.563 461.659 927.86 461.21 928.224 460.803C930.654 460.275 933.649 457.939 938.172 454.305C948.647 447.56 953.823 436.314 950.508 427.524C949.531 424.915 949.319 424.377 952.381 421.906C958.799 416.728 959.323 414.276 960.124 406.609C960.842 399.733 961.371 394.669 955.519 391.533C955.951 390.991 957.257 389.777 961.048 387.506C971.631 380.755 974.452 374.436 971.509 364.138L971.485 364.029L971.443 363.918C969.444 358.607 966.431 353.083 959.399 352.348C956.095 352.003 952.131 352.674 945.746 354.637L945.617 354.677L945.486 354.735C928.441 361.967 922.603 365.019 908.715 376.225C902.337 381.372 900.182 382.338 899.471 382.477C899.439 382.438 899.408 382.399 899.358 382.358L899.279 382.261L899.198 382.182C894.663 377.548 887.868 374.545 880.077 373.731C871.084 372.791 861.722 374.871 855.042 379.31L849.1 382.849L840.68 375.908C837.194 373.037 829.699 367.667 826.333 366.889C824.067 366.012 821.487 365.405 818.678 365.111C806.611 363.85 790.841 368.282 781.966 375.444L781.634 375.711L781.399 376.078C780.439 377.578 778.973 379.131 777.763 380.284C775.208 376.533 770.35 367.297 769.76 365.084L769.842 364.293L769.146 363.438C769.114 363.399 766.237 359.827 765.003 356.588L764.849 356.18L764.58 355.85C762.965 353.868 761.892 351.32 760.948 349.071C760.35 347.622 759.805 346.338 759.16 345.328C758.687 341.99 755.365 336.861 752.08 334.633C747.669 330.35 742.922 327.917 737.975 327.4Z" fill="#F1C3A9"/>
<path d="M1744.82 379.289C1741.94 381.688 1741.94 381.688 1746.73 387.445C1760.15 400.639 1835.67 462.052 1860.6 480.284C1869.47 485.082 1879.3 493.958 1882.89 498.276C1889.13 502.834 1891.52 505.713 1892.96 504.514C1894.4 503.314 1893.21 501.875 1892.01 500.436C1892.01 500.436 1894.89 498.037 1896.33 496.838C1897.77 495.638 1906.66 485.804 1915.79 473.331C1924.92 460.858 1934.05 448.384 1938.37 444.787C1959.51 417.442 1977.53 395.134 1977.53 395.134C1977.53 395.134 1976.33 393.695 1973.93 390.816C1970.1 389.137 1960.27 380.261 1950.44 371.385C1940.61 362.509 1928.15 353.393 1923.11 350.274C1918.08 347.155 1913.28 341.398 1909.69 337.08C1907.29 334.201 1901.06 329.643 1897.22 327.964C1890.99 323.406 1868.94 302.775 1862.95 295.578C1860.55 292.7 1854.32 288.142 1850.72 283.824L1840.9 274.948L1835.13 279.745C1821.92 293.177 1790.94 326.279 1778.93 341.15C1752.27 370.654 1749.14 375.691 1744.82 379.289ZM1852.39 294.618C1857.19 300.376 1868.21 310.691 1875.64 316.688C1883.07 322.686 1895.3 334.44 1905.13 343.316C1913.75 350.753 1925.98 362.508 1932.21 367.066C1949.71 379.301 1964.58 391.295 1964.33 393.934C1964.33 393.934 1958.81 396.092 1950.9 395.372C1944.18 396.092 1933.38 397.77 1928.1 397.29C1921.38 398.009 1910.59 399.688 1902.67 398.968C1895.95 399.687 1889.23 400.406 1889.23 400.406C1887.79 401.606 1886.84 397.528 1887.32 392.25C1888.53 379.057 1879.9 371.621 1866.47 373.059C1860.95 375.218 1859.75 373.778 1858.79 369.7C1856.88 361.544 1844.17 355.067 1839.85 358.665C1838.41 359.864 1837.21 358.425 1837.21 358.425C1836.01 356.986 1833.15 344.752 1835.09 323.642C1835.1 309.01 1835.59 303.733 1838.47 301.334C1839.91 300.135 1841.35 298.935 1840.4 294.857C1838 291.979 1839.68 288.141 1841.12 286.941C1841.37 284.303 1843.76 287.182 1852.39 294.618ZM1876.99 403.284C1871.23 408.081 1852.27 411.679 1840.28 411.918C1837.64 411.678 1833.8 409.998 1832.6 408.559C1829.01 404.241 1825.91 380.013 1829.04 374.976C1830.96 368.499 1836.73 363.702 1842.25 361.544C1846.33 360.584 1854.71 370.66 1852.79 377.136C1853.5 383.853 1853.5 383.853 1860.46 380.495C1871.75 373.539 1883.26 378.577 1882.29 389.132C1883 395.848 1882.76 398.487 1876.99 403.284ZM1830.77 327.24C1829.8 337.795 1830.02 349.789 1830.98 353.867C1830.49 359.144 1830.01 364.421 1826.88 369.459C1823.76 374.496 1822.08 378.334 1823.5 391.767C1825.4 414.556 1827.79 417.434 1837.15 416.955C1846.51 416.476 1876.26 411.2 1880.59 407.602C1883.47 405.204 1902.43 401.607 1912.98 402.567C1918.26 403.047 1922.1 404.726 1923.54 403.527C1923.54 403.527 1931.7 401.608 1941.05 401.129C1947.77 400.41 1957.13 399.93 1957.13 399.93C1958.57 398.731 1960.01 397.532 1961.21 398.971C1967.69 400.891 1967.69 400.891 1949.91 420.56C1944.15 425.357 1936.46 436.631 1929.25 442.627C1924.69 448.864 1915.56 461.337 1908.11 469.972C1900.67 478.607 1893.22 487.242 1891.78 488.442C1888.9 490.84 1887.46 492.04 1885.06 489.161C1882.67 486.282 1878.83 484.603 1877.39 485.802C1877.39 485.802 1873.55 484.123 1872.35 482.684C1869.96 479.805 1866.36 475.487 1861.33 472.368C1856.29 469.25 1848.86 463.252 1842.63 458.694C1835.2 452.697 1822.73 443.581 1815.3 437.583C1806.67 430.147 1798.04 422.71 1795.4 422.47C1793 419.591 1784.37 412.155 1776.94 406.157C1751.05 383.847 1749.86 382.408 1752.98 377.371L1761.62 370.175C1767.63 362.739 1783.72 346.908 1807.5 319.803C1819.27 307.57 1828.4 295.097 1828.4 295.097C1832.48 294.137 1831.99 299.415 1830.77 327.24Z" fill="#C48B68"/>
<path d="M1977.53 395.134C1977.53 395.134 1959.51 417.442 1938.37 444.787C1934.05 448.384 1924.92 460.858 1915.79 473.331C1906.66 485.804 1897.77 495.638 1896.33 496.838C1894.89 498.037 1892.01 500.436 1892.01 500.436C1893.21 501.875 1894.4 503.314 1892.96 504.514C1891.52 505.713 1889.13 502.834 1882.89 498.276C1879.3 493.958 1869.47 485.082 1860.6 480.284C1835.67 462.052 1760.15 400.639 1746.73 387.445C1741.94 381.688 1741.94 381.688 1744.82 379.289C1749.14 375.691 1752.27 370.654 1778.93 341.15C1790.94 326.279 1821.92 293.177 1835.13 279.745L1840.9 274.948L1850.72 283.824C1854.32 288.142 1860.55 292.7 1862.95 295.578C1868.94 302.775 1890.99 323.406 1897.22 327.964C1901.06 329.643 1907.29 334.201 1909.69 337.08C1913.28 341.398 1918.08 347.155 1923.11 350.274C1928.15 353.393 1940.61 362.509 1950.44 371.385C1960.27 380.261 1970.1 389.137 1973.93 390.816C1976.33 393.695 1977.53 395.134 1977.53 395.134ZM1981.16 395.105L1975.68 388.513L1975.06 388.245C1971.65 386.75 1961.38 377.488 1952.32 369.307C1942.58 360.506 1929.96 351.229 1924.6 347.894C1919.95 345.011 1915.27 339.383 1911.85 335.281C1909.23 332.129 1902.91 327.47 1898.66 325.527C1892.32 320.786 1870.91 300.746 1865.11 293.779C1863.9 292.326 1862.02 290.651 1859.84 288.737C1857.45 286.631 1854.73 284.241 1852.89 282.025L1852.75 281.866L1852.59 281.732L1842.77 272.856L1840.97 271.229L1833.24 277.67L1833.15 277.768C1820.57 290.553 1789.33 323.817 1776.81 339.308C1763.47 354.072 1755.9 362.856 1751.37 368.111C1746.86 373.328 1745 375.487 1743.02 377.13C1737.98 381.328 1739.91 383.645 1744.57 389.244L1744.65 389.345L1744.75 389.434C1758.97 403.405 1834.74 464.842 1858.93 482.527L1859.08 482.647L1859.24 482.728C1867.51 487.205 1877.19 495.815 1880.71 500.046L1880.92 500.305L1881.2 500.517C1882.98 501.81 1884.47 503.009 1885.67 503.957C1889.18 506.737 1891.96 508.958 1894.74 506.644C1896.98 504.773 1896.6 502.609 1895.75 500.923L1898.1 498.968C1899.85 497.517 1909 487.294 1918.03 474.972C1926.93 462.863 1936.1 450.328 1940.17 446.946L1940.4 446.754L1940.58 446.504C1961.46 419.495 1979.53 397.125 1979.71 396.902L1981.16 395.105Z" fill="#C48B68"/>
<path d="M135.411 251.484L153.989 261.359L163.827 242.771C175.372 219.862 178.785 211.22 173.561 199.149C165.727 181.042 142.43 176.792 138.617 192.773C136.91 197.094 133.898 198.397 123.556 199.29C110.201 201.486 107.189 202.789 105.482 207.11C95.6443 225.698 106.491 242.501 135.411 251.484ZM120.143 207.932C126.167 205.325 129.179 204.022 134.803 208.754C141.733 216.504 141.733 216.504 143.84 204.844C141.228 198.808 142.935 194.487 150.265 194.898C165.326 188.381 170.653 225.486 158.203 238.039C148.766 249.288 145.754 250.591 131.494 242.431C108.598 230.841 102.069 215.753 120.143 207.932Z" fill="#F1C3A9"/>
<path d="M-38.407 229.961L-16.2088 281.263C-5.76254 305.404 4.68368 329.546 1.67145 330.85C2.97722 333.867 7.29523 335.582 10.3075 334.278C16.3319 331.672 20.6499 333.386 20.6499 333.386C29.2859 336.815 28.3808 326.458 6.1826 275.157L-18.6272 217.82L-27.6638 221.73C-33.6883 224.337 -39.7127 226.943 -38.407 229.961ZM-2.85408 279.067C12.8152 315.28 16.7326 324.333 13.7204 325.636C9.00168 331.261 6.39012 325.225 -1.04387 299.78C-7.57275 284.691 -12.3952 265.281 -17.6183 253.211C-21.5356 244.157 -24.1472 238.122 -21.135 236.818C-21.135 236.818 -14.6061 251.907 -2.85408 279.067Z" fill="#F1C3A9"/>
<path d="M142.845 276.929C157.506 277.751 157.506 277.751 172.968 263.895C194.454 247.433 197.867 238.79 198.668 224.113C200.271 194.757 179.883 164.169 149.657 152.168C128.067 143.597 90.6143 156.22 82.0821 177.825C69.2318 197.717 73.2529 231.804 94.0416 255.054C107.901 270.553 122.16 278.714 142.845 276.929ZM116.923 159.167C170.342 150.384 214.13 210.257 181.099 249.628C160.919 269.109 128.185 276.107 111.314 261.911C71.9471 228.786 78.1647 168.772 116.923 159.167Z" fill="#F1C3A9"/>
<path d="M1.74647 140.932C1.74647 140.932 -2.57153 139.217 -6.88953 137.503C-12.5133 132.771 -18.5378 135.378 -24.5622 137.985C-30.5867 140.591 -37.9169 140.18 -43.9413 142.787C-51.2716 142.376 -54.2838 143.68 -56.7916 162.679C-63.6174 179.963 -65.3238 184.284 -75.6663 185.177C-84.703 189.087 -84.703 189.087 -85.1036 196.426C-82.4921 202.461 -4.54616 390.864 0.67695 402.935C0.67695 402.935 6.7014 400.328 9.71363 399.025C12.7259 397.721 50.579 377.759 95.7624 358.209C290.251 270.47 313.043 257.025 314.75 252.704C316.456 248.383 315.15 245.365 315.15 245.365C307.82 244.954 293.457 211.759 253.482 135.905C232.59 87.6214 219.131 64.7829 214.813 63.0686C214.813 63.0686 202.764 68.2822 192.422 69.1746C164.006 77.8874 156.676 77.4765 136.792 64.5837L118.214 54.7086L100.141 62.5289C91.1044 66.4391 74.7375 69.9383 65.7008 73.8485L46.3217 78.6512L45.5203 93.3289C44.719 108.007 35.2816 119.256 18.514 130.094C9.47737 134.004 4.75869 139.628 1.74647 140.932ZM57.673 113.15L67.9117 87.2228L116.107 66.3685L137.697 74.9402C157.581 87.8331 157.581 87.8331 185.596 86.4591C198.951 84.2633 209.293 83.3708 212.305 82.0674C215.318 80.764 217.929 86.7995 223.553 91.5316C234.4 108.335 299.184 241.526 298.784 248.865C300.089 251.882 285.028 258.399 250.187 277.058C188.236 307.447 22.5639 379.133 13.5272 383.044L6.19697 382.633L-30.3648 298.136C-57.7861 234.764 -66.9265 213.64 -63.9143 212.336C-62.6085 215.354 -60.9021 211.033 -66.5259 206.301C-69.1374 200.265 -69.1374 200.265 -60.1007 196.355C-51.0641 192.445 -49.3576 188.124 -51.9692 182.088C-54.18 168.714 -44.7427 157.465 -32.6938 152.251C-20.6449 147.038 -17.6327 145.734 -4.67865 150.877C8.27535 156.02 11.2876 154.717 17.312 152.11C19.0185 147.789 28.0552 143.879 34.0796 141.272C47.4343 139.076 46.1285 136.059 57.673 113.15Z" fill="#F1C3A9"/>
<path d="M144.656 297.642C178.695 293.662 207.512 277.61 219.056 254.701C233.613 230.488 216.133 173.562 193.638 154.634C168.131 137.009 147.847 131.455 124.55 127.205C96.535 128.579 90.5106 131.185 73.3423 149.362C54.8683 164.522 48.0425 181.806 52.4642 208.555C56.9898 260.338 100.274 302.515 144.656 297.642ZM71.1458 243.464C55.0758 214.59 57.4798 170.557 78.9661 154.094C91.4157 141.542 100.452 137.632 118.125 137.15C141.822 134.062 154.776 139.205 178.978 153.812L198.861 166.705L206.295 192.15C219.353 222.328 219.857 240.023 205.701 256.897C192.851 276.788 162.729 289.822 133.408 288.178C118.748 287.356 85.91 269.32 83.2985 263.285C81.9927 260.267 75.0631 252.517 71.1458 243.464Z" fill="#F1C3A9"/>
<path d="M46.3217 78.6512L65.7008 73.8485C74.7375 69.9383 91.1044 66.4391 100.141 62.5289L118.214 54.7086L136.792 64.5837C156.676 77.4765 164.006 77.8874 192.422 69.1746C202.764 68.2822 214.813 63.0686 214.813 63.0686C219.131 64.7829 232.59 87.6214 253.482 135.905C293.457 211.759 307.82 244.954 315.15 245.365C315.15 245.365 316.456 248.383 314.75 252.704C313.043 257.025 290.251 270.47 95.7624 358.209C50.579 377.759 12.7259 397.721 9.71363 399.025C6.7014 400.328 0.67695 402.935 0.67695 402.935C-4.54616 390.864 -82.4921 202.461 -85.1036 196.426C-84.703 189.087 -84.703 189.087 -75.6663 185.177C-73.2142 184.976 -71.2803 184.569 -69.5935 183.839C-64.2317 181.519 -61.9963 175.858 -56.7916 162.679C-55.0743 149.539 -53.0847 144.881 -49.6206 143.382C-48.0543 142.704 -46.2137 142.66 -43.9413 142.787C-37.9169 140.18 -30.5867 140.591 -24.5622 137.985C-18.5378 135.378 -12.5133 132.771 -6.88953 137.503C-2.57153 139.217 1.74647 140.932 1.74647 140.932C4.75869 139.628 9.47737 134.004 18.514 130.094C35.2816 119.256 44.719 108.007 45.5203 93.3289L46.3217 78.6512ZM41.5937 74.7496L41.3803 78.3889L40.579 93.0666C39.9218 105.102 32.3721 115.176 16.1337 125.75C10.0149 128.469 5.67945 131.921 2.7748 134.217C2.26777 134.616 1.71355 135.07 1.19346 135.439L-4.41994 133.21C-12.1827 127.254 -20.4663 130.838 -26.551 133.471C-29.021 134.54 -31.9591 135.023 -35.1039 135.524C-38.3091 136.051 -41.6176 136.587 -44.8457 137.804C-47.342 137.738 -49.5139 137.926 -51.6225 138.838C-57.7976 141.51 -59.9484 148.854 -61.6337 161.406C-66.4589 173.561 -68.312 177.874 -71.5953 179.295C-72.6797 179.764 -74.1226 180.066 -76.1178 180.249L-76.9151 180.307L-77.638 180.62C-87.8193 185.025 -89.4991 186.433 -90.028 196.12L-90.079 197.325L-89.622 198.381C-88.5512 200.855 -74.4647 234.815 -58.1443 274.186C-35.314 329.262 -6.90996 397.798 -3.84139 404.89L-1.88272 409.417L11.6723 403.551C12.3952 403.239 14.0128 402.431 17.9447 400.443C31.117 393.776 61.9358 378.22 97.7211 362.735C315.368 264.546 317.224 259.91 319.327 254.521C321.716 248.472 319.891 243.923 319.669 243.41L318.454 240.604L315.859 240.473C311.623 237.792 300.549 216.25 285.33 186.614C277.994 172.304 268.833 154.521 257.935 133.799C243.872 101.298 225.314 61.9642 216.635 58.5184L214.735 57.764L212.868 58.5722C212.747 58.6243 201.408 63.4949 191.996 64.307L191.479 64.3516L190.971 64.4998C163.662 72.8771 157.892 72.4359 139.457 60.4929L120.507 50.4203L118.421 49.3169L98.2085 58.0627C93.9613 59.9005 87.6706 61.7268 81.5738 63.505C75.3564 65.3354 68.9322 67.1837 64.1598 69.2128L45.1683 73.9194L41.5937 74.7496Z" fill="#F1C3A9"/>
</svg>
